<?xml version="1.0" encoding="utf-8"?>
<!-- Generator: Adobe Illustrator 25.2.3, SVG Export Plug-In . SVG Version: 6.00 Build 0)  -->
<svg version="1.1" id="Capa_1" width="300" height="300" xmlns="http://www.w3.org/2000/svg" xmlns:xlink="http://www.w3.org/1999/xlink" x="0px" y="0px"
	 viewBox="0 0 132 132" style="enable-background:new 0 0 132 132;" xml:space="preserve">
<style type="text/css">
	.st0{fill:#CCCCCC;}
	.st1{fill:#FDC747;}
	.st2{fill:#0C9F39;}
	.st3{fill-opacity:0;stroke:#000000;stroke-width:3.1232;stroke-miterlimit:1.041;}
	.st4{enable-background:new    ;}
	.st5{fill:#FFFFFF;}
	.st6{fill:#FEF3F4;}
	.st7{fill:#090F11;}
	.st8{fill-opacity:0;stroke:#000000;stroke-width:0.5205;stroke-miterlimit:1.041;}
	.st9{fill:none;}
</style>
<g>
	<g>
		<g>
			<g>
				<path id="apfzHDctN_3_" class="st0" d="M1.8,1.2H131v26.3H1.8V1.2z"/>
			</g>
		</g>
		<g>
			<g>
				<path id="apfzHDctN_1_" class="st0" d="M1.9,104.8H131v25.9H1.9V104.8z"/>
			</g>
		</g>
		<g>
			<g>
				<path id="a3W8RoxLfG_1_" class="st0" d="M1.7,78.8h129.2v25.9H1.7V78.8z"/>
			</g>
		</g>
		<g>
			<g>
				<path id="a3W8RoxLfG" class="st0" d="M1.8,52.7L131.3,51l0.3,27.6L2.1,80.3L1.8,52.7z"/>
			</g>
		</g>
		<g>
			<g>
				<path id="apfzHDctN" class="st0" d="M1.8,27.5H131v25.9H1.8V27.5z"/>
			</g>
		</g>
		<g>
			<rect x="54.5" y="1.3" class="st1" width="24.6" height="25.3"/>
			<rect x="28.3" y="53.4" class="st1" width="25.3" height="25.3"/>
			<rect x="79.8" y="79.6" class="st1" width="25.3" height="25.3"/>
			<rect x="1.7" y="79.3" class="st2" width="25.9" height="25.3"/>
			<rect x="53.9" y="105.8" class="st2" width="25.3" height="25.3"/>
			<rect x="80.4" y="53.3" class="st2" width="24.6" height="26"/>
			<rect x="28.3" y="1.7" class="st2" width="25.3" height="25.3"/>
			<g>
				<g>
					<path id="kiBkTMmJq_1_" class="st3" d="M2.2,2h128.1v128.4H2.2V2z"/>
				</g>
			</g>
			<g class="st4">
				<path class="st5" d="M13.2,41.3v5.1h-2.1V33.6h3.6c1.7,0,2.9,0.3,3.7,0.9s1.2,1.6,1.2,2.8c0,1.6-0.8,2.7-2.5,3.4l3.6,5.7h-2.4
					l-3.1-5.1H13.2z M13.2,39.6h1.5c1,0,1.7-0.2,2.1-0.5s0.7-0.9,0.7-1.6c0-0.7-0.2-1.2-0.7-1.6s-1.2-0.5-2.1-0.5h-1.4V39.6z"/>
			</g>
			<g class="st4">
				<path class="st5" d="M19.4,12.7c0,1.3-0.4,2.4-1.3,3.1s-2.1,1.1-3.8,1.1H13v4.8h-2.1V8.8h3.7c1.6,0,2.8,0.3,3.6,1
					S19.4,11.4,19.4,12.7z M13,15.1h1.1c1.1,0,1.9-0.2,2.4-0.6s0.8-1,0.8-1.8c0-0.7-0.2-1.3-0.7-1.7s-1.2-0.5-2.1-0.5H13V15.1z"/>
			</g>
			<g class="st4">
				<path class="st5" d="M13.9,74.5c-0.6,0-1.1-0.1-1.4-0.2v-1.8c0.5,0.1,0.9,0.2,1.3,0.2c1.1,0,1.7-0.7,1.7-2.2l0.2-10.5h2.1
					l-0.2,10.4c0,1.3-0.3,2.3-0.9,3C16,74.1,15.1,74.5,13.9,74.5z"/>
			</g>
			<g class="st4">
				<path class="st5" d="M19.1,98.9h-7.3V86.1h7.3v1.8h-5.2v3.5h4.8v1.8h-4.8v4h5.2V98.9z"/>
			</g>
			<g class="st4">
				<path class="st6" d="M21.3,118c0,1.6-0.3,2.9-0.9,3.9s-1.5,1.8-2.6,2.2l3.1,3.3h-2.8l-2.4-2.9h-0.3c-1.9,0-3.4-0.6-4.5-1.7
					c-1-1.2-1.6-2.8-1.6-4.9s0.5-3.8,1.6-4.9s2.5-1.7,4.5-1.7c1.9,0,3.4,0.6,4.4,1.7S21.3,115.9,21.3,118z M11.5,118
					c0,1.6,0.3,2.8,1,3.6c0.6,0.8,1.6,1.2,2.8,1.2c1.2,0,2.2-0.4,2.8-1.2s1-2,1-3.6c0-1.6-0.3-2.8-0.9-3.6s-1.6-1.2-2.8-1.2
					c-1.3,0-2.2,0.4-2.9,1.2S11.5,116.4,11.5,118z"/>
			</g>
			<g class="st4">
				<path class="st5" d="M39.4,93.8v5.1h-2.1V86.1H41c1.7,0,2.9,0.3,3.7,0.9s1.2,1.6,1.2,2.8c0,1.6-0.8,2.7-2.5,3.4l3.6,5.7h-2.4
					l-3.1-5.1H39.4z M39.4,92h1.5c1,0,1.7-0.2,2.1-0.5s0.7-0.9,0.7-1.6c0-0.7-0.2-1.2-0.7-1.6s-1.2-0.5-2.1-0.5h-1.4V92z"/>
			</g>
			<g class="st4">
				<path class="st5" d="M66,98.9V86.1h2.1v12.8H66z"/>
			</g>
			<g class="st4">
				<path class="st5" d="M123.7,91.7c0,2.1-0.5,3.7-1.6,4.9c-1,1.2-2.5,1.7-4.4,1.7c-1.9,0-3.4-0.6-4.5-1.7c-1-1.2-1.6-2.8-1.6-4.9
					s0.5-3.8,1.6-4.9c1-1.1,2.5-1.7,4.5-1.7c1.9,0,3.4,0.6,4.4,1.7S123.7,89.6,123.7,91.7z M113.9,91.7c0,1.6,0.3,2.8,1,3.6
					c0.6,0.8,1.6,1.2,2.8,1.2c1.2,0,2.2-0.4,2.8-1.2c0.6-0.8,1-2,1-3.6c0-1.6-0.3-2.8-0.9-3.6c-0.6-0.8-1.6-1.2-2.8-1.2
					c-1.3,0-2.2,0.4-2.9,1.2C114.2,88.9,113.9,90.1,113.9,91.7z"/>
			</g>
			<g class="st4">
				<path class="st5" d="M97,98.1h-9.2v-1.5l6.5-9.6H88v-1.8h8.8v1.5l-6.5,9.6H97V98.1z"/>
			</g>
			<g class="st4">
				<path class="st5" d="M40.1,21.7V8.8h2.1v12.8H40.1z"/>
			</g>
			<g class="st4">
				<path class="st5" d="M70.3,21.7l-1.3-3.6h-4.9l-1.3,3.6h-2.2l4.8-12.9h2.3l4.8,12.9H70.3z M68.5,16.3l-1.2-3.5
					c-0.1-0.2-0.2-0.6-0.4-1.1c-0.2-0.5-0.3-0.9-0.3-1.1c-0.2,0.7-0.4,1.5-0.7,2.4l-1.2,3.3H68.5z"/>
			</g>
			<g class="st4">
				<path class="st5" d="M97.5,21.7h-2.6l-6.3-10.2h-0.1l0,0.6c0.1,1.1,0.1,2.1,0.1,3v6.7h-1.9V8.8h2.5L95.7,19h0.1
					c0-0.1,0-0.6-0.1-1.5s-0.1-1.5-0.1-2V8.8h1.9V21.7z"/>
			</g>
			<g class="st4">
				<path class="st5" d="M46.9,111.6v8.3c0,0.9-0.2,1.8-0.6,2.5c-0.4,0.7-1,1.3-1.8,1.6c-0.8,0.4-1.7,0.6-2.8,0.6
					c-1.6,0-2.8-0.4-3.7-1.3s-1.3-2-1.3-3.5v-8.3h2.1v8.1c0,1.1,0.2,1.8,0.7,2.3s1.2,0.8,2.3,0.8c2,0,3-1,3-3.1v-8.1H46.9z"/>
			</g>
			<g class="st4">
				<path class="st5" d="M70.8,124.4h-7.3v-12.8h7.3v1.8h-5.2v3.5h4.8v1.8h-4.8v4h5.2V124.4z"/>
			</g>
			<g class="st4">
				<path class="st5" d="M98,120.9c0,1.1-0.4,2-1.2,2.7s-2,1-3.4,1s-2.6-0.2-3.6-0.7v-2c0.6,0.3,1.2,0.5,1.9,0.7s1.3,0.2,1.8,0.2
					c0.8,0,1.4-0.2,1.8-0.5s0.6-0.7,0.6-1.3c0-0.5-0.2-0.9-0.5-1.2s-1.1-0.7-2.2-1.2c-1.2-0.5-2-1-2.5-1.6s-0.7-1.3-0.7-2.2
					c0-1.1,0.4-1.9,1.1-2.5s1.8-0.9,3.1-0.9c1.2,0,2.5,0.3,3.7,0.8l-0.7,1.7c-1.1-0.5-2.2-0.7-3.1-0.7c-0.7,0-1.2,0.1-1.5,0.4
					c-0.4,0.3-0.5,0.7-0.5,1.2c0,0.3,0.1,0.6,0.2,0.9c0.1,0.2,0.4,0.5,0.7,0.7s0.9,0.5,1.7,0.8c0.9,0.4,1.6,0.8,2.1,1.1
					s0.8,0.7,1,1.2S98,120.3,98,120.9z"/>
			</g>
		</g>
		<g>
			<g>
				<path id="b1i9inTSxq" class="st7" d="M2.1,26.7h129.3v0.7H2.1V26.7z"/>
			</g>
			<g>
				<g>
					<path id="b1i9inTSxq_1_" class="st8" d="M2.1,26.7h129.3v0.7H2.1V26.7z"/>
				</g>
			</g>
		</g>
		<g>
			<g>
				<path id="a7cQLCdO9V" class="st7" d="M2.4,52.6h128.9v0.7H2.4V52.6z"/>
			</g>
			<g>
				<g>
					<path id="a7cQLCdO9V_1_" class="st8" d="M2.4,52.6h128.9v0.7H2.4V52.6z"/>
				</g>
			</g>
		</g>
		<g>
			<g>
				<path id="a58Lf7Q6t" class="st7" d="M2.4,78.5h128.9v0.7H2.4V78.5z"/>
			</g>
			<g>
				<g>
					<path id="a58Lf7Q6t_1_" class="st8" d="M2.4,78.5h128.9v0.7H2.4V78.5z"/>
				</g>
			</g>
		</g>
		<g>
			<g>
				<path id="a16lFIiPa0" class="st7" d="M2.3,104.7h128.9v0.7H2.3V104.7z"/>
			</g>
			<g>
				<g>
					<path id="a16lFIiPa0_1_" class="st8" d="M2.3,104.7h128.9v0.7H2.3V104.7z"/>
				</g>
			</g>
		</g>
		<g>
			<g>
				<path id="a1dlZoGrS" class="st7" d="M2.2,130.7h128.9v0.7H2.2V130.7z"/>
			</g>
			<g>
				<g>
					<path id="a1dlZoGrS_1_" class="st8" d="M2.2,130.7h128.9v0.7H2.2V130.7z"/>
				</g>
			</g>
		</g>
		<g>
			<g>
				<path id="ciIMmz0RE" class="st7" d="M28.4,1.2V132h-0.7V1.2C27.7,1.2,28.4,1.2,28.4,1.2z"/>
			</g>
			<g>
				<g>
					<path id="ciIMmz0RE_1_" class="st8" d="M28.4,1.2V132h-0.7V1.2C27.7,1.2,28.4,1.2,28.4,1.2z"/>
				</g>
			</g>
		</g>
		<g>
			<g>
				<path id="a5OkG2dhrH" class="st7" d="M54.4,1.4V132h-0.7V1.4H54.4z"/>
			</g>
			<g>
				<g>
					<path id="a5OkG2dhrH_1_" class="st9" d="M54.4,1.4V132h-0.7V1.4H54.4z"/>
				</g>
			</g>
		</g>
		<g>
			<g>
				<path id="d6OK7P0qAo" class="st7" d="M80.3,1.7V132h-0.7V1.7C79.6,1.7,80.3,1.7,80.3,1.7z"/>
			</g>
			<g>
				<g>
					<path id="d6OK7P0qAo_1_" class="st8" d="M80.3,1.7V132h-0.7V1.7C79.6,1.7,80.3,1.7,80.3,1.7z"/>
				</g>
			</g>
		</g>
		<g>
			<g>
				<path id="bh9FaNiqG" class="st7" d="M106.1,1.2v130.2h-0.7V1.2H106.1z"/>
			</g>
			<g>
				<g>
					<path id="bh9FaNiqG_1_" class="st8" d="M106.1,1.2v130.2h-0.7V1.2H106.1z"/>
				</g>
			</g>
		</g>
	</g>
</g>
<path class="st8" d="M0.4,0"/>
<path class="st8" d="M0.4,0"/>
<g class="st4">
	<path class="st5" d="M46.5,60.1v8.3c0,0.9-0.2,1.8-0.6,2.5c-0.4,0.7-1,1.3-1.8,1.6c-0.8,0.4-1.7,0.6-2.8,0.6
		c-1.6,0-2.8-0.4-3.7-1.3s-1.3-2-1.3-3.5v-8.3h2.1v8.1c0,1.1,0.2,1.8,0.7,2.3s1.2,0.8,2.3,0.8c2,0,3-1,3-3.1v-8.1H46.5z"/>
</g>
<g class="st4">
	<path class="st5" d="M67,65.9h4.7v6.5c-0.8,0.3-1.5,0.4-2.2,0.5s-1.5,0.2-2.3,0.2c-1.9,0-3.4-0.6-4.5-1.7c-1.1-1.2-1.6-2.8-1.6-4.9
		c0-2.1,0.6-3.7,1.8-4.9c1.2-1.2,2.8-1.8,4.9-1.8c1.3,0,2.6,0.3,3.8,0.8l-0.7,1.7c-1-0.5-2.1-0.7-3.1-0.7c-1.4,0-2.5,0.4-3.3,1.3
		s-1.2,2-1.2,3.5c0,1.6,0.4,2.8,1.1,3.6c0.7,0.8,1.8,1.2,3.1,1.2c0.7,0,1.4-0.1,2.2-0.3v-3.3H67V65.9z"/>
</g>
<g class="st4">
	<path class="st5" d="M96,72.9l-1.3-3.6h-4.9l-1.3,3.6h-2.2L91.2,60h2.3l4.8,12.9H96z M94.2,67.5L93,64c-0.1-0.2-0.2-0.6-0.4-1.1
		s-0.3-0.9-0.3-1.1c-0.2,0.7-0.4,1.5-0.7,2.4l-1.2,3.3H94.2z"/>
</g>
<g class="st4">
	<path class="st5" d="M115.4,67.8v5.1h-2.1V60.1h3.6c1.7,0,2.9,0.3,3.7,0.9s1.2,1.6,1.2,2.8c0,1.6-0.8,2.7-2.5,3.4l3.6,5.7h-2.4
		l-3.1-5.1H115.4z M115.4,66h1.5c1,0,1.7-0.2,2.1-0.5s0.7-0.9,0.7-1.6c0-0.7-0.2-1.2-0.7-1.6s-1.2-0.5-2.1-0.5h-1.4V66z"/>
</g>
<g class="st4">
	<path class="st5" d="M45.5,46.5l-1.3-3.6h-4.9L38,46.5h-2.2l4.8-12.9h2.3l4.8,12.9H45.5z M43.6,41.1l-1.2-3.5
		c-0.1-0.2-0.2-0.6-0.4-1.1s-0.3-0.9-0.3-1.1c-0.2,0.7-0.4,1.5-0.7,2.4l-1.2,3.3H43.6z"/>
</g>
<g class="st4">
	<path class="st5" d="M73.4,39.9c0,2.1-0.6,3.7-1.8,4.9c-1.2,1.1-2.9,1.7-5.1,1.7H63V33.6h4c2,0,3.6,0.6,4.8,1.7
		S73.4,37.9,73.4,39.9z M71.2,40c0-3.1-1.4-4.6-4.3-4.6h-1.8v9.3h1.5C69.7,44.7,71.2,43.1,71.2,40z"/>
</g>
<g class="st4">
	<path class="st5" d="M91.7,46.5V33.6h2.1v12.8H91.7z"/>
</g>
<g class="st4">
	<path class="st5" d="M124.4,40c0,2.1-0.5,3.7-1.6,4.9c-1,1.2-2.5,1.7-4.4,1.7c-1.9,0-3.4-0.6-4.5-1.7c-1-1.2-1.6-2.8-1.6-4.9
		s0.5-3.8,1.6-4.9c1-1.1,2.5-1.7,4.5-1.7c1.9,0,3.4,0.6,4.4,1.7S124.4,37.9,124.4,40z M114.6,40c0,1.6,0.3,2.8,1,3.6
		c0.6,0.8,1.6,1.2,2.8,1.2c1.2,0,2.2-0.4,2.8-1.2c0.6-0.8,1-2,1-3.6c0-1.6-0.3-2.8-0.9-3.6c-0.6-0.8-1.6-1.2-2.8-1.2
		c-1.3,0-2.2,0.4-2.9,1.2C114.9,37.2,114.6,38.4,114.6,40z"/>
</g>
<g class="st4">
	<path class="st5" d="M124.7,15.2c0,2.1-0.5,3.7-1.6,4.9c-1,1.2-2.5,1.7-4.4,1.7c-1.9,0-3.4-0.6-4.5-1.7c-1-1.2-1.6-2.8-1.6-4.9
		s0.5-3.8,1.6-4.9c1-1.1,2.5-1.7,4.5-1.7c1.9,0,3.4,0.6,4.4,1.7S124.7,13.1,124.7,15.2z M114.9,15.2c0,1.6,0.3,2.8,1,3.6
		c0.6,0.8,1.6,1.2,2.8,1.2c1.2,0,2.2-0.4,2.8-1.2c0.6-0.8,1-2,1-3.6c0-1.6-0.3-2.8-0.9-3.6c-0.6-0.8-1.6-1.2-2.8-1.2
		c-1.3,0-2.2,0.4-2.9,1.2C115.2,12.5,114.9,13.7,114.9,15.2z"/>
</g>
<g class="st4">
	<path class="st5" d="M124.1,118.2c0,2.1-0.5,3.7-1.6,4.9s-2.5,1.7-4.4,1.7c-1.9,0-3.4-0.6-4.5-1.7c-1-1.2-1.6-2.8-1.6-4.9
		s0.5-3.8,1.6-4.9s2.5-1.7,4.5-1.7c1.9,0,3.4,0.6,4.4,1.7S124.1,116.1,124.1,118.2z M114.3,118.2c0,1.6,0.3,2.8,1,3.6
		c0.6,0.8,1.6,1.2,2.8,1.2c1.2,0,2.2-0.4,2.8-1.2s1-2,1-3.6c0-1.6-0.3-2.8-0.9-3.6s-1.6-1.2-2.8-1.2c-1.3,0-2.2,0.4-2.9,1.2
		S114.3,116.6,114.3,118.2z"/>
</g>
</svg>
